<svg width="15" height="13" viewBox="0 0 15 13"  xmlns="http://www.w3.org/2000/svg">
<path d="M10.5217 6.80351H13.838C13.7814 10.1056 13.1309 10.65 11.1016 11.8521C10.8682 11.9935 10.7904 12.2905 10.9319 12.5309C11.0733 12.7642 11.3702 12.842 11.6107 12.7006C14.0006 11.2864 14.835 10.4238 14.835 6.30856V2.49739C14.835 1.28827 13.8521 0.3125 12.6501 0.3125H10.5288C9.28435 0.3125 8.34393 1.25292 8.34393 2.49739V4.61863C8.33686 5.86309 9.27728 6.80351 10.5217 6.80351Z" fill="white"/>
<path d="M2.87239 6.80351H6.1886C6.13204 10.1056 5.48152 10.65 3.45219 11.8521C3.21886 11.9935 3.14108 12.2905 3.28249 12.5309C3.42391 12.7642 3.72089 12.842 3.96129 12.7006C6.35123 11.2864 7.18559 10.4238 7.18559 6.30856V2.49739C7.18559 1.28827 6.20275 0.3125 5.00071 0.3125H2.87946C1.62792 0.3125 0.6875 1.25292 0.6875 2.49739V4.61863C0.6875 5.86309 1.62792 6.80351 2.87239 6.80351Z" fill="white"/>
</svg>
