<svg width="15" height="16" viewBox="0 0 15 16"  xmlns="http://www.w3.org/2000/svg">
<path d="M10.2869 9.22842L8.04569 6.94981C7.89877 6.80976 7.70329 6.7321 7.50031 6.73316C7.40199 6.73259 7.30453 6.75143 7.2135 6.78861C7.12248 6.82579 7.03969 6.88057 6.96988 6.94981L4.57921 9.33301C4.44007 9.47299 4.36196 9.66234 4.36196 9.85971C4.36196 10.0571 4.44007 10.2464 4.57921 10.3864C4.71919 10.5255 4.90854 10.6037 5.10591 10.6037C5.30327 10.6037 5.49262 10.5255 5.6326 10.3864L6.75323 9.26578V14.3385C6.75323 14.5366 6.83194 14.7266 6.97205 14.8668C7.11215 15.0069 7.30217 15.0856 7.50031 15.0856C7.69845 15.0856 7.88848 15.0069 8.02858 14.8668C8.16869 14.7266 8.2474 14.5366 8.2474 14.3385V9.30313L9.22608 10.2818C9.29553 10.3518 9.37816 10.4074 9.4692 10.4453C9.56024 10.4833 9.65789 10.5028 9.75651 10.5028C9.85514 10.5028 9.95278 10.4833 10.0438 10.4453C10.1349 10.4074 10.2175 10.3518 10.2869 10.2818C10.4261 10.1418 10.5042 9.95249 10.5042 9.75512C10.5042 9.55775 10.4261 9.3684 10.2869 9.22842Z" fill="white"/>
<path d="M14.9712 7.48024C14.9712 8.47094 14.5776 9.42106 13.8771 10.1216C13.1766 10.8221 12.2264 11.2157 11.2357 11.2157H10.0553C10.3381 11.1563 10.5977 11.0161 10.8024 10.8122C10.9414 10.6735 11.0516 10.5087 11.1268 10.3273C11.2019 10.1459 11.2407 9.95147 11.2407 9.75512C11.2407 9.55876 11.2019 9.36433 11.1268 9.18294C11.0516 9.00155 10.9414 8.83676 10.8024 8.69799L8.52382 6.45674C8.38505 6.31781 8.22026 6.20761 8.03887 6.13241C7.85748 6.05722 7.66305 6.01852 7.4667 6.01852C7.27034 6.01852 7.07591 6.05722 6.89452 6.13241C6.71313 6.20761 6.54834 6.31781 6.40957 6.45674L4.04878 8.80258C3.90986 8.94135 3.79965 9.10614 3.72446 9.28753C3.64926 9.46892 3.61056 9.66335 3.61056 9.85971C3.61056 10.0561 3.64926 10.2505 3.72446 10.4319C3.79965 10.6133 3.90986 10.7781 4.04878 10.9168L4.17578 11.0214C3.23992 10.7749 2.38387 10.2902 1.69103 9.61444C0.998182 8.93873 0.492169 8.09508 0.222282 7.16568C-0.0476054 6.23629 -0.0721643 5.25283 0.150998 4.31112C0.37416 3.36941 0.837434 2.50155 1.49569 1.7921C2.15394 1.08265 2.98473 0.555791 3.90712 0.26285C4.82951 -0.0300913 5.81205 -0.0791261 6.75903 0.120523C7.706 0.320171 8.58512 0.761696 9.31074 1.40208C10.0364 2.04247 10.5837 2.85989 10.8996 3.7747C11.0041 3.7747 11.1087 3.7747 11.2133 3.7747C12.2027 3.76873 13.1541 4.15555 13.8586 4.85027C14.5632 5.54499 14.9633 6.49084 14.9712 7.48024Z" fill="white"/>
</svg>
