<svg width="12" height="12" viewBox="0 0 12 15"  xmlns="http://www.w3.org/2000/svg">
<path d="M1.92928 14.3125H6.92319C9.84111 14.3125 11.6875 12.7574 11.6875 10.3716C11.6875 8.48807 10.3482 7.12613 8.3965 7.01989V6.94261C9.98459 6.72044 11.0657 5.51309 11.0657 3.97728C11.0657 1.82328 9.43929 0.5 6.77972 0.5H1.92928C0.905635 0.5 0.3125 1.10854 0.3125 2.17099V12.6512C0.3125 13.704 0.905635 14.3125 1.92928 14.3125ZM3.46957 6.23751V2.76988H5.82301C7.16235 2.76988 7.95639 3.38807 7.95639 4.45056C7.95639 5.57103 7.07626 6.23751 5.58385 6.23751H3.46957ZM3.46957 12.0812V8.24656H5.87085C7.55462 8.24656 8.48259 8.90341 8.48259 10.1398C8.48259 11.4051 7.58331 12.0812 5.93779 12.0812H3.46957Z" fill="white"/>
</svg>
