<svg width="14" height="25" viewBox="0 0 14 25" fill="none" xmlns="http://www.w3.org/2000/svg">
<path d="M0 12.3752C0 12.5558 0.0332668 12.7246 0.0998004 12.8814C0.166334 13.0382 0.266135 13.1832 0.399202 13.3162L11.7052 24.3656C11.9618 24.6222 12.2707 24.7505 12.6319 24.7505C12.879 24.7505 13.1 24.6934 13.2948 24.5794C13.4897 24.4654 13.6465 24.311 13.7653 24.1161C13.8841 23.9213 13.9435 23.7003 13.9435 23.4532C13.9435 23.1014 13.8152 22.7925 13.5586 22.5264L3.17935 12.3752L13.5586 2.22413C13.8152 1.95799 13.9435 1.64908 13.9435 1.29741C13.9435 1.05028 13.8841 0.829294 13.7653 0.634445C13.6465 0.439597 13.4897 0.285144 13.2948 0.171087C13.1 0.057029 12.879 0 12.6319 0C12.2707 0 11.9618 0.123562 11.7052 0.370687L0.399202 11.4343C0.266135 11.5673 0.166334 11.7123 0.0998004 11.8691C0.0332668 12.026 0 12.1947 0 12.3752Z" fill="white"/>
</svg>
