<svg width="38" height="49" viewBox="0 0 38 49" fill="none" xmlns="http://www.w3.org/2000/svg">
<g filter="url(#filter0_d_5_288)">
<path d="M26.3677 23.4766C26.3677 23.2799 26.3288 23.0962 26.2512 22.9254C26.1736 22.7546 26.0623 22.5968 25.9174 22.4519L13.6208 10.4037C13.3413 10.1346 12.9998 10 12.5961 10C12.3373 10 12.0993 10.0621 11.8819 10.1863C11.6645 10.3105 11.4937 10.4787 11.3695 10.6909C11.2453 10.9031 11.1832 11.1437 11.1832 11.4129C11.1832 11.7958 11.3178 12.1322 11.5869 12.4221L22.8898 23.4766L11.5869 34.5311C11.3178 34.8209 11.1832 35.1573 11.1832 35.5403C11.1832 35.8095 11.2453 36.0501 11.3695 36.2623C11.4937 36.4745 11.6645 36.6427 11.8819 36.7668C12.0993 36.891 12.3373 36.9531 12.5961 36.9531C12.9998 36.9531 13.3413 36.8134 13.6208 36.534L25.9174 24.5013C26.0623 24.3564 26.1736 24.1985 26.2512 24.0277C26.3288 23.857 26.3677 23.6732 26.3677 23.4766Z" fill="white"/>
<path d="M26.7064 22.7185L26.7064 22.7185C26.815 22.9574 26.8677 23.2121 26.8677 23.4766C26.8677 23.7411 26.815 23.9957 26.7064 24.2346L26.7064 22.7185ZM26.7064 22.7185C26.6018 22.4883 26.4543 22.2817 26.271 22.0983L26.271 22.0983M26.7064 22.7185L26.271 22.0983M26.271 22.0983L26.2673 22.0947M26.271 22.0983L26.2673 22.0947M26.2673 22.0947L13.9707 10.0465L13.9707 10.0465M26.2673 22.0947L13.9707 10.0465M13.9707 10.0465L13.9676 10.0435M13.9707 10.0465L13.9676 10.0435M13.9676 10.0435C13.5909 9.68073 13.1233 9.5 12.5961 9.5C12.2534 9.5 11.9293 9.58332 11.6338 9.75219C11.3419 9.91898 11.1073 10.1492 10.938 10.4383C10.7648 10.7343 10.6832 11.0636 10.6832 11.4129C10.6832 11.9265 10.8686 12.3833 11.2205 12.7623L11.2287 12.7711L11.2373 12.7795L22.1747 23.4766M13.9676 10.0435L22.1747 23.4766M22.1747 23.4766L11.2373 34.1736L11.2287 34.182L11.2205 34.1909C10.8686 34.5698 10.6832 35.0266 10.6832 35.5403C10.6832 35.8896 10.7648 36.2189 10.938 36.5149C11.1073 36.8041 11.342 37.0343 11.634 37.201M22.1747 23.4766L26.7064 24.2346C26.6018 24.4648 26.4543 24.6715 26.2709 24.8548L26.2671 24.8587L26.2671 24.8586L13.9743 36.8876L13.6208 36.534L13.9705 36.8914L13.9723 36.8896C13.5972 37.2637 13.1282 37.4531 12.5961 37.4531C12.2534 37.4531 11.9294 37.3698 11.634 37.201M11.634 37.201C11.6339 37.2009 11.6339 37.2009 11.6338 37.2009L11.8819 36.7668L11.634 37.201Z" stroke="white"/>
</g>
<defs>
<filter id="filter0_d_5_288" x="0.483228" y="0.3" width="36.5844" height="48.3531" filterUnits="userSpaceOnUse" color-interpolation-filters="sRGB">
<feFlood flood-opacity="0" result="BackgroundImageFix"/>
<feColorMatrix in="SourceAlpha" type="matrix" values="0 0 0 0 0 0 0 0 0 0 0 0 0 0 0 0 0 0 127 0" result="hardAlpha"/>
<feOffset dy="1"/>
<feGaussianBlur stdDeviation="4.85"/>
<feComposite in2="hardAlpha" operator="out"/>
<feColorMatrix type="matrix" values="0 0 0 0 0 0 0 0 0 0 0 0 0 0 0 0 0 0 0.37 0"/>
<feBlend mode="normal" in2="BackgroundImageFix" result="effect1_dropShadow_5_288"/>
<feBlend mode="normal" in="SourceGraphic" in2="effect1_dropShadow_5_288" result="shape"/>
</filter>
</defs>
</svg>
