<svg width="44" height="44" viewBox="0 0 44 44" fill="none" xmlns="http://www.w3.org/2000/svg">
<path d="M36 22V22C29.9858 25.0901 25.0901 29.9858 22 36V36V36C18.9099 29.9858 14.0142 25.0901 8 22V22V22C14.0142 18.9099 18.9099 14.0142 22 8V8V8C25.0901 14.0142 29.9858 18.9099 36 22V22Z" fill="#E1B812" fill-opacity="0.34" style="mix-blend-mode:plus-darker"/>
<path d="M28.2227 21.9996V21.9996C25.5497 23.3729 23.3738 25.5488 22.0004 28.2218V28.2218V28.2218C20.6271 25.5488 18.4512 23.3729 15.7782 21.9996V21.9996V21.9996C18.4512 20.6262 20.6271 18.4503 22.0004 15.7773V15.7773V15.7773C23.3738 18.4503 25.5497 20.6262 28.2227 21.9996V21.9996Z" fill="#E1B812" fill-opacity="0.34" style="mix-blend-mode:plus-darker"/>
<path d="M28.2227 21.9996V21.9996C25.5497 23.3729 23.3738 25.5488 22.0004 28.2218V28.2218V28.2218C20.6271 25.5488 18.4512 23.3729 15.7782 21.9996V21.9996V21.9996C18.4512 20.6262 20.6271 18.4503 22.0004 15.7773V15.7773V15.7773C23.3738 18.4503 25.5497 20.6262 28.2227 21.9996V21.9996Z" fill="#E1B812" fill-opacity="0.34" style="mix-blend-mode:plus-darker"/>
<circle cx="22" cy="22" r="20" stroke="black" stroke-opacity="0.21" stroke-width="4"/>
</svg>
