<svg width="28" height="27" viewBox="0 0 28 27" fill="none" xmlns="http://www.w3.org/2000/svg">
<path d="M14.1871 27C16.0341 27 17.7728 26.647 19.4033 25.9411C21.0338 25.2353 22.472 24.2603 23.718 23.0161C24.9641 21.7721 25.9407 20.336 26.6476 18.7081C27.3546 17.0802 27.7081 15.3441 27.7081 13.5C27.7081 11.6559 27.3546 9.91984 26.6476 8.2919C25.9407 6.66396 24.9641 5.22794 23.718 3.98381C22.472 2.7397 21.0316 1.7647 19.3966 1.05882C17.7617 0.352941 16.0208 0 14.1738 0C12.3268 0 10.5881 0.352941 8.9576 1.05882C7.32712 1.7647 5.89106 2.7397 4.64942 3.98381C3.40778 5.22794 2.43347 6.66396 1.72649 8.2919C1.01951 9.91984 0.666016 11.6559 0.666016 13.5C0.666016 15.3441 1.01951 17.0802 1.72649 18.7081C2.43347 20.336 3.40999 21.7721 4.65604 23.0161C5.90211 24.2603 7.34038 25.2353 8.97085 25.9411C10.6013 26.647 12.3401 27 14.1871 27Z" fill="#E1B812"/>
<path d="M9.47367 19.4839H18.3794C19.0618 19.4839 19.5726 19.3157 19.9116 18.9794C20.2506 18.6431 20.4201 18.1386 20.4201 17.466V9.51793C20.4201 8.84528 20.2506 8.3408 19.9116 8.00448C19.5726 7.66816 19.0618 7.5 18.3794 7.5H9.47367C8.79128 7.5 8.27949 7.66816 7.9383 8.00448C7.59711 8.3408 7.42651 8.84528 7.42651 9.51793V17.466C7.42651 18.1386 7.59711 18.6431 7.9383 18.9794C8.27949 19.3157 8.79128 19.4839 9.47367 19.4839ZM9.37587 18.4359C9.08901 18.4359 8.86734 18.3588 8.71088 18.2048C8.55441 18.0507 8.47617 17.824 8.47617 17.5245V11.3861C8.47617 11.0867 8.55441 10.86 8.71088 10.7059C8.86734 10.5518 9.08901 10.4748 9.37587 10.4748H18.4642C18.7554 10.4748 18.9792 10.5518 19.1357 10.7059C19.2922 10.86 19.3704 11.0867 19.3704 11.3861V17.5245C19.3704 17.824 19.2922 18.0507 19.1357 18.2048C18.9792 18.3588 18.7554 18.4359 18.4642 18.4359H9.37587ZM12.6552 12.8182H13.0399C13.1529 12.8182 13.2322 12.7965 13.2779 12.7531C13.3235 12.7097 13.3463 12.6316 13.3463 12.5188V12.1347C13.3463 12.0219 13.3235 11.9449 13.2779 11.9036C13.2322 11.8624 13.1529 11.8418 13.0399 11.8418H12.6552C12.5422 11.8418 12.4629 11.8624 12.4173 11.9036C12.3716 11.9449 12.3488 12.0219 12.3488 12.1347V12.5188C12.3488 12.6316 12.3716 12.7097 12.4173 12.7531C12.4629 12.7965 12.5422 12.8182 12.6552 12.8182ZM14.8197 12.8182H15.2044C15.3218 12.8182 15.4022 12.7965 15.4456 12.7531C15.4891 12.7097 15.5108 12.6316 15.5108 12.5188V12.1347C15.5108 12.0219 15.4891 11.9449 15.4456 11.9036C15.4022 11.8624 15.3218 11.8418 15.2044 11.8418H14.8197C14.7067 11.8418 14.6285 11.8624 14.5851 11.9036C14.5416 11.9449 14.5198 12.0219 14.5198 12.1347V12.5188C14.5198 12.6316 14.5416 12.7097 14.5851 12.7531C14.6285 12.7965 14.7067 12.8182 14.8197 12.8182ZM16.9908 12.8182H17.3689C17.4862 12.8182 17.5666 12.7965 17.6101 12.7531C17.6536 12.7097 17.6753 12.6316 17.6753 12.5188V12.1347C17.6753 12.0219 17.6536 11.9449 17.6101 11.9036C17.5666 11.8624 17.4862 11.8418 17.3689 11.8418H16.9908C16.8734 11.8418 16.793 11.8624 16.7495 11.9036C16.7061 11.9449 16.6844 12.0219 16.6844 12.1347V12.5188C16.6844 12.6316 16.7061 12.7097 16.7495 12.7531C16.793 12.7965 16.8734 12.8182 16.9908 12.8182ZM10.4907 14.9468H10.8754C10.9884 14.9468 11.0666 14.9251 11.1101 14.8817C11.1535 14.8383 11.1753 14.7602 11.1753 14.6474V14.2698C11.1753 14.1527 11.1535 14.0735 11.1101 14.0322C11.0666 13.991 10.9884 13.9704 10.8754 13.9704H10.4907C10.3734 13.9704 10.293 13.991 10.2495 14.0322C10.206 14.0735 10.1843 14.1527 10.1843 14.2698V14.6474C10.1843 14.7602 10.206 14.8383 10.2495 14.8817C10.293 14.9251 10.3734 14.9468 10.4907 14.9468ZM12.6552 14.9468H13.0399C13.1529 14.9468 13.2322 14.9251 13.2779 14.8817C13.3235 14.8383 13.3463 14.7602 13.3463 14.6474V14.2698C13.3463 14.1527 13.3235 14.0735 13.2779 14.0322C13.2322 13.991 13.1529 13.9704 13.0399 13.9704H12.6552C12.5422 13.9704 12.4629 13.991 12.4173 14.0322C12.3716 14.0735 12.3488 14.1527 12.3488 14.2698V14.6474C12.3488 14.7602 12.3716 14.8383 12.4173 14.8817C12.4629 14.9251 12.5422 14.9468 12.6552 14.9468ZM14.8197 14.9468H15.2044C15.3218 14.9468 15.4022 14.9251 15.4456 14.8817C15.4891 14.8383 15.5108 14.7602 15.5108 14.6474V14.2698C15.5108 14.1527 15.4891 14.0735 15.4456 14.0322C15.4022 13.991 15.3218 13.9704 15.2044 13.9704H14.8197C14.7067 13.9704 14.6285 13.991 14.5851 14.0322C14.5416 14.0735 14.5198 14.1527 14.5198 14.2698V14.6474C14.5198 14.7602 14.5416 14.8383 14.5851 14.8817C14.6285 14.9251 14.7067 14.9468 14.8197 14.9468ZM16.9908 14.9468H17.3689C17.4862 14.9468 17.5666 14.9251 17.6101 14.8817C17.6536 14.8383 17.6753 14.7602 17.6753 14.6474V14.2698C17.6753 14.1527 17.6536 14.0735 17.6101 14.0322C17.5666 13.991 17.4862 13.9704 17.3689 13.9704H16.9908C16.8734 13.9704 16.793 13.991 16.7495 14.0322C16.7061 14.0735 16.6844 14.1527 16.6844 14.2698V14.6474C16.6844 14.7602 16.7061 14.8383 16.7495 14.8817C16.793 14.9251 16.8734 14.9468 16.9908 14.9468ZM10.4907 17.0754H10.8754C10.9884 17.0754 11.0666 17.0548 11.1101 17.0136C11.1535 16.9723 11.1753 16.8931 11.1753 16.7759V16.3984C11.1753 16.2812 11.1535 16.2021 11.1101 16.1608C11.0666 16.1196 10.9884 16.099 10.8754 16.099H10.4907C10.3734 16.099 10.293 16.1196 10.2495 16.1608C10.206 16.2021 10.1843 16.2812 10.1843 16.3984V16.7759C10.1843 16.8931 10.206 16.9723 10.2495 17.0136C10.293 17.0548 10.3734 17.0754 10.4907 17.0754ZM12.6552 17.0754H13.0399C13.1529 17.0754 13.2322 17.0548 13.2779 17.0136C13.3235 16.9723 13.3463 16.8931 13.3463 16.7759V16.3984C13.3463 16.2812 13.3235 16.2021 13.2779 16.1608C13.2322 16.1196 13.1529 16.099 13.0399 16.099H12.6552C12.5422 16.099 12.4629 16.1196 12.4173 16.1608C12.3716 16.2021 12.3488 16.2812 12.3488 16.3984V16.7759C12.3488 16.8931 12.3716 16.9723 12.4173 17.0136C12.4629 17.0548 12.5422 17.0754 12.6552 17.0754ZM14.8197 17.0754H15.2044C15.3218 17.0754 15.4022 17.0548 15.4456 17.0136C15.4891 16.9723 15.5108 16.8931 15.5108 16.7759V16.3984C15.5108 16.2812 15.4891 16.2021 15.4456 16.1608C15.4022 16.1196 15.3218 16.099 15.2044 16.099H14.8197C14.7067 16.099 14.6285 16.1196 14.5851 16.1608C14.5416 16.2021 14.5198 16.2812 14.5198 16.3984V16.7759C14.5198 16.8931 14.5416 16.9723 14.5851 17.0136C14.6285 17.0548 14.7067 17.0754 14.8197 17.0754Z" fill="white"/>
</svg>
