<svg width="30" height="30" viewBox="0 0 30 30" fill="none" xmlns="http://www.w3.org/2000/svg">
<g clip-path="url(#clip0_12_4374)">
<path d="M15 29.9854C17.049 29.9854 18.978 29.5934 20.7867 28.8094C22.5956 28.0255 24.1912 26.9427 25.5735 25.561C26.9559 24.1794 28.0392 22.5846 28.8235 20.7766C29.6078 18.9687 30 17.0408 30 14.9927C30 12.9447 29.6078 11.0167 28.8235 9.20873C28.0392 7.4008 26.9559 5.80599 25.5735 4.42431C24.1912 3.04263 22.5931 1.95983 20.7793 1.1759C18.9657 0.391966 17.0343 0 14.9853 0C12.9363 0 11.0073 0.391966 9.19852 1.1759C7.3897 1.95983 5.79656 3.04263 4.41911 4.42431C3.04166 5.80599 1.96078 7.4008 1.17647 9.20873C0.392156 11.0167 0 12.9447 0 14.9927C0 17.0408 0.392156 18.9687 1.17647 20.7766C1.96078 22.5846 3.04411 24.1794 4.42646 25.561C5.80882 26.9427 7.4044 28.0255 9.21322 28.8094C11.022 29.5934 12.951 29.9854 15 29.9854Z" fill="#E1B812"/>
<path d="M12.6282 16.9613C12.4935 16.9613 12.3809 16.9184 12.2903 16.8325C12.1998 16.7465 12.1545 16.6386 12.1545 16.5085C12.1545 16.3784 12.1998 16.2693 12.2903 16.1811C12.3809 16.0928 12.4935 16.0486 12.6282 16.0486H18.1113C18.2414 16.0486 18.3518 16.0928 18.4423 16.1811C18.5329 16.2693 18.5781 16.3784 18.5781 16.5085C18.5781 16.6386 18.5329 16.7465 18.4423 16.8325C18.3518 16.9184 18.2414 16.9613 18.1113 16.9613H12.6282ZM12.6282 19.6019C12.4935 19.6019 12.3809 19.5578 12.2903 19.4695C12.1998 19.3812 12.1545 19.2744 12.1545 19.149C12.1545 19.019 12.1998 18.9098 12.2903 18.8215C12.3809 18.7333 12.4935 18.6892 12.6282 18.6892H18.1113C18.2414 18.6892 18.3518 18.7333 18.4423 18.8215C18.5329 18.9098 18.5781 19.019 18.5781 19.149C18.5781 19.2744 18.5329 19.3812 18.4423 19.4695C18.3518 19.5578 18.2414 19.6019 18.1113 19.6019H12.6282ZM11.6598 22.4375H19.0589C19.7788 22.4375 20.3188 22.2552 20.6787 21.8906C21.0387 21.526 21.2187 20.9814 21.2187 20.2568V13.9306H16.1745C15.2966 13.9306 14.8577 13.4917 14.8577 12.6139V7.5H11.6598C10.9399 7.5 10.3999 7.68347 10.04 8.0504C9.67998 8.41734 9.5 8.9631 9.5 9.68768V20.2568C9.5 20.986 9.67998 21.5318 10.04 21.8941C10.3999 22.2564 10.9399 22.4375 11.6598 22.4375ZM16.1954 12.9762H21.1351C21.1119 12.8322 21.0515 12.6882 20.954 12.5442C20.8564 12.4002 20.724 12.2423 20.5568 12.0704L16.7179 8.16188C16.5554 7.99467 16.3998 7.86113 16.2511 7.76127C16.1025 7.6614 15.9562 7.59986 15.8122 7.57664V12.5999C15.8122 12.8507 15.9399 12.9762 16.1954 12.9762Z" fill="white"/>
</g>
<defs>
<clipPath id="clip0_12_4374">
<rect width="30" height="30" fill="white"/>
</clipPath>
</defs>
</svg>
