<svg width="27" height="35" viewBox="0 0 27 35" fill="none" xmlns="http://www.w3.org/2000/svg">
<g filter="url(#filter0_d_5_308)">
<path d="M8.39378 16.4766C8.39378 16.3383 8.42107 16.2091 8.47566 16.089C8.53025 15.9689 8.60849 15.8579 8.71039 15.756L17.3572 7.28386C17.5537 7.09462 17.7939 7 18.0778 7C18.2597 7 18.4271 7.04367 18.58 7.13101C18.7328 7.21835 18.8529 7.33663 18.9403 7.48584C19.0276 7.63505 19.0713 7.80427 19.0713 7.99351C19.0713 8.26281 18.9767 8.49937 18.7874 8.70316L10.8393 16.4766L18.7874 24.25C18.9767 24.4537 19.0713 24.6903 19.0713 24.9597C19.0713 25.1489 19.0276 25.3181 18.9403 25.4673C18.8529 25.6166 18.7328 25.7348 18.58 25.8221C18.4271 25.9094 18.2597 25.9531 18.0778 25.9531C17.7939 25.9531 17.5537 25.8549 17.3572 25.6584L8.71039 17.1971C8.60849 17.0952 8.53025 16.9842 8.47566 16.8641C8.42107 16.744 8.39378 16.6149 8.39378 16.4766Z" fill="black"/>
<path d="M8.46432 15.5049L8.46177 15.5074C8.33282 15.6363 8.22916 15.7816 8.15558 15.9435L8.47566 16.089L8.15558 15.9435C8.07922 16.1115 8.04219 16.2906 8.04219 16.4766C8.04219 16.6626 8.07922 16.8416 8.15558 17.0096C8.22916 17.1715 8.33282 17.3168 8.46178 17.4458L8.46447 17.4484L8.46449 17.4484L17.1086 25.9071C17.1091 25.9075 17.1096 25.908 17.1101 25.9085C17.3739 26.1715 17.7036 26.3047 18.0778 26.3047C18.3188 26.3047 18.5466 26.2461 18.7544 26.1273M8.46432 15.5049L18.58 25.8221M8.46432 15.5049L17.1111 7.03272L17.1111 7.03271L17.1133 7.0306C17.3782 6.7755 17.707 6.64841 18.0778 6.64841C18.3188 6.64841 18.5466 6.707 18.7544 6.82574C18.9597 6.94303 19.1247 7.1049 19.2437 7.30822C19.3655 7.51632 19.4229 7.74792 19.4229 7.99351C19.4229 8.35472 19.2925 8.67592 19.0451 8.94241L19.0393 8.94861L19.0333 8.95453L11.3422 16.4766M8.46432 15.5049L11.0908 16.2307M18.7544 26.1273L18.58 25.8221M18.7544 26.1273C18.7544 26.1274 18.7544 26.1274 18.7543 26.1274L18.58 25.8221M18.7544 26.1273C18.9597 26.0101 19.1247 25.8483 19.2437 25.645C19.3655 25.4369 19.4229 25.2053 19.4229 24.9597C19.4229 24.5984 19.2925 24.2772 19.0451 24.0107L19.0393 24.0045L19.0333 23.9986L11.3422 16.4766M18.58 25.8221C18.7328 25.7348 18.8529 25.6166 18.9403 25.4673C19.0276 25.3181 19.0713 25.1489 19.0713 24.9597C19.0713 24.6903 18.9767 24.4537 18.7874 24.25L11.0908 16.7225L11.3422 16.4766M11.3422 16.4766L11.0908 16.2307M11.0908 16.2307L18.7874 8.70316L11.0908 16.2307Z" stroke="black" stroke-width="0.703188"/>
</g>
<defs>
<filter id="filter0_d_5_308" x="0.869688" y="0.179077" width="25.7257" height="34.0013" filterUnits="userSpaceOnUse" color-interpolation-filters="sRGB">
<feFlood flood-opacity="0" result="BackgroundImageFix"/>
<feColorMatrix in="SourceAlpha" type="matrix" values="0 0 0 0 0 0 0 0 0 0 0 0 0 0 0 0 0 0 127 0" result="hardAlpha"/>
<feOffset dy="0.703188"/>
<feGaussianBlur stdDeviation="3.41046"/>
<feComposite in2="hardAlpha" operator="out"/>
<feColorMatrix type="matrix" values="0 0 0 0 0 0 0 0 0 0 0 0 0 0 0 0 0 0 0.37 0"/>
<feBlend mode="normal" in2="BackgroundImageFix" result="effect1_dropShadow_5_308"/>
<feBlend mode="normal" in="SourceGraphic" in2="effect1_dropShadow_5_308" result="shape"/>
</filter>
</defs>
</svg>
