<svg width="9" height="12" viewBox="0 0 9 12" fill="none" xmlns="http://www.w3.org/2000/svg">
<path d="M8.36416 4.18605C8.36416 6.49794 6.49 8.37209 4.17811 8.37209C1.86622 8.37209 -0.00793457 6.49794 -0.00793457 4.18605C-0.00793457 1.87416 1.86622 0 4.17811 0C6.49 0 8.36416 1.87416 8.36416 4.18605Z" fill="#8E740B"/>
<path d="M7.52695 7.93023C6.63824 8.72564 5.46466 9.2093 4.17811 9.2093C2.89157 9.2093 1.71798 8.72564 0.829275 7.93023V10.5369C0.829275 11.41 0.829275 11.8465 1.10778 11.9711C1.38628 12.0956 1.72711 11.8115 2.40877 11.2434L2.93274 10.8066C3.52702 10.3113 3.82417 10.0636 4.17811 10.0636C4.53206 10.0636 4.8292 10.3113 5.42348 10.8066L5.94746 11.2434C6.62912 11.8115 6.96995 12.0956 7.24845 11.9711C7.52695 11.8465 7.52695 11.41 7.52695 10.5369V7.93023Z" fill="#8E740B"/>
</svg>
