<svg width="17" height="24" viewBox="0 0 17 24" fill="none" xmlns="http://www.w3.org/2000/svg">
<path d="M16.7442 8.37209C16.7442 12.9959 12.9959 16.7442 8.37209 16.7442C3.74831 16.7442 0 12.9959 0 8.37209C0 3.74831 3.74831 0 8.37209 0C12.9959 0 16.7442 3.74831 16.7442 8.37209Z" fill="black"/>
<path d="M15.0698 15.8605C13.2924 17.4513 10.9452 18.4186 8.37209 18.4186C5.799 18.4186 3.45184 17.4513 1.67442 15.8605V21.0739C1.67442 22.82 1.67442 23.693 2.23142 23.9421C2.78842 24.1913 3.47008 23.6231 4.83341 22.4867L5.88136 21.6133C7.06991 20.6226 7.6642 20.1273 8.37209 20.1273C9.07999 20.1273 9.67427 20.6226 10.8628 21.6133L11.9108 22.4867C13.2741 23.6231 13.9558 24.1913 14.5128 23.9421C15.0698 23.693 15.0698 22.82 15.0698 21.0739V15.8605Z" fill="black"/>
</svg>
