<svg width="30" height="31" viewBox="0 0 30 31" fill="none" xmlns="http://www.w3.org/2000/svg">
<g clip-path="url(#clip0_88_2046)">
<path d="M15 30C17.049 30 18.978 29.608 20.7867 28.824C22.5956 28.0402 24.1912 26.9574 25.5735 25.5756C26.9559 24.194 28.0392 22.5992 28.8235 20.7912C29.6078 18.9833 30 17.0554 30 15.0073C30 12.9593 29.6078 11.0313 28.8235 9.22335C28.0392 7.41542 26.9559 5.82061 25.5735 4.43892C24.1912 3.05725 22.5931 1.97445 20.7793 1.19051C18.9657 0.406583 17.0343 0.0146179 14.9853 0.0146179C12.9363 0.0146179 11.0073 0.406583 9.19852 1.19051C7.3897 1.97445 5.79656 3.05725 4.41911 4.43892C3.04166 5.82061 1.96078 7.41542 1.17647 9.22335C0.392156 11.0313 0 12.9593 0 15.0073C0 17.0554 0.392156 18.9833 1.17647 20.7912C1.96078 22.5992 3.04411 24.194 4.42646 25.5756C5.80882 26.9574 7.4044 28.0402 9.21322 28.824C11.022 29.608 12.951 30 15 30Z" fill="#E1B812"/>
<path d="M10.7649 23.7265C10.2747 23.7265 9.88994 23.5918 9.61053 23.3224C9.33112 23.0528 9.19141 22.6633 9.19141 22.1538V21.948C9.19141 21.3698 9.32376 20.7892 9.58847 20.2062C9.85317 19.6232 10.1865 19.0621 10.5885 18.5232C10.9904 17.9842 11.4095 17.4845 11.8458 17.0239C12.2821 16.5633 12.6718 16.1616 13.0149 15.8186C13.3385 15.4953 13.4953 15.1695 13.4855 14.8412C13.4757 14.5129 13.3189 14.2018 13.0149 13.9078C12.6718 13.5747 12.2821 13.1778 11.8458 12.7172C11.4095 12.2567 10.9904 11.7545 10.5885 11.2106C10.1865 10.6667 9.85317 10.1033 9.58847 9.52026C9.32376 8.9372 9.19141 8.35171 9.19141 7.76376V7.60207C9.19141 7.09251 9.33112 6.70055 9.61053 6.42617C9.88994 6.1518 10.2747 6.01462 10.7649 6.01462H18.912C19.4022 6.01462 19.7894 6.1518 20.0737 6.42617C20.3581 6.70055 20.5002 7.09251 20.5002 7.60207V7.76376C20.5002 8.35171 20.3678 8.9372 20.1031 9.52026C19.8385 10.1033 19.5027 10.6667 19.0958 11.2106C18.6889 11.7545 18.2698 12.2567 17.8384 12.7172C17.407 13.1778 17.0198 13.5747 16.6766 13.9078C16.3727 14.2018 16.2159 14.5129 16.206 14.8412C16.1963 15.1695 16.3532 15.4953 16.6766 15.8186C17.0198 16.1616 17.407 16.5633 17.8384 17.0239C18.2698 17.4845 18.6889 17.9842 19.0958 18.5232C19.5027 19.0621 19.8385 19.6232 20.1031 20.2062C20.3678 20.7892 20.5002 21.3698 20.5002 21.948V22.1538C20.5002 22.6633 20.3581 23.0528 20.0737 23.3224C19.7894 23.5918 19.4022 23.7265 18.912 23.7265H10.7649ZM11.5002 22.4184H18.1766C18.3924 22.4184 18.5198 22.3277 18.559 22.1464C18.5982 21.9652 18.5492 21.8108 18.412 21.6834L15.515 18.7437C15.4659 18.6947 15.4291 18.6506 15.4046 18.6114C15.3801 18.5722 15.3679 18.5134 15.3679 18.435V14.1724C15.3679 13.8098 15.5002 13.5012 15.765 13.2464C16.0983 12.9132 16.4365 12.58 16.7796 12.2469C17.1228 11.9137 17.4414 11.5903 17.7356 11.2767C17.863 11.1396 17.9022 11.0122 17.8532 10.8946C17.8042 10.777 17.7012 10.7182 17.5443 10.7182H12.1473C11.9904 10.7182 11.8875 10.777 11.8385 10.8946C11.7894 11.0122 11.8287 11.1396 11.9561 11.2767C12.2502 11.5903 12.5689 11.9137 12.912 12.2469C13.2551 12.58 13.5885 12.9132 13.912 13.2464C14.1767 13.5012 14.3091 13.8098 14.3091 14.1724V18.435C14.3091 18.5134 14.2968 18.5722 14.2723 18.6114C14.2478 18.6506 14.211 18.6947 14.162 18.7437L11.2796 21.6834C11.1424 21.8108 11.0934 21.9652 11.1326 22.1464C11.1718 22.3277 11.2943 22.4184 11.5002 22.4184Z" fill="white"/>
</g>
<defs>
<clipPath id="clip0_88_2046">
<rect width="30" height="30" fill="white" transform="translate(0 0.0146179)"/>
</clipPath>
</defs>
</svg>
