<svg width="30" height="31" viewBox="0 0 30 31" fill="none" xmlns="http://www.w3.org/2000/svg">
<g clip-path="url(#clip0_88_2039)">
<path d="M15 30C17.049 30 18.978 29.608 20.7867 28.824C22.5956 28.0402 24.1912 26.9574 25.5735 25.5756C26.9559 24.194 28.0392 22.5992 28.8235 20.7912C29.6078 18.9833 30 17.0554 30 15.0073C30 12.9593 29.6078 11.0313 28.8235 9.22335C28.0392 7.41542 26.9559 5.82061 25.5735 4.43892C24.1912 3.05725 22.5931 1.97445 20.7793 1.19051C18.9657 0.406583 17.0343 0.0146179 14.9853 0.0146179C12.9363 0.0146179 11.0073 0.406583 9.19852 1.19051C7.3897 1.97445 5.79656 3.05725 4.41911 4.43892C3.04166 5.82061 1.96078 7.41542 1.17647 9.22335C0.392156 11.0313 0 12.9593 0 15.0073C0 17.0554 0.392156 18.9833 1.17647 20.7912C1.96078 22.5992 3.04411 24.194 4.42646 25.5756C5.80882 26.9574 7.4044 28.0402 9.21322 28.824C11.022 29.608 12.951 30 15 30Z" fill="#E1B812"/>
<path d="M14.9998 23.6649C14.7939 23.6649 14.6223 23.5987 14.4851 23.4665C14.3478 23.3341 14.2792 23.1602 14.2792 22.9446V21.8569C13.2596 21.7589 12.3674 21.4454 11.6027 20.9162C10.838 20.387 10.3478 19.6815 10.1321 18.7996C10.1125 18.7212 10.0954 18.6427 10.0807 18.5644C10.0659 18.486 10.0586 18.4076 10.0586 18.3293C10.0586 18.0647 10.1419 17.8491 10.3086 17.6825C10.4753 17.5159 10.686 17.4326 10.9409 17.4326C11.1664 17.4326 11.3576 17.4939 11.5145 17.6163C11.6713 17.7388 11.7939 17.9324 11.8821 18.197C12.0096 18.6967 12.2718 19.1229 12.6689 19.4757C13.0659 19.8284 13.6027 20.0538 14.2792 20.1518V15.6835L14.1762 15.654C12.9115 15.3503 11.9557 14.902 11.3086 14.3091C10.6615 13.7163 10.338 12.9397 10.338 11.9794C10.338 10.9407 10.7081 10.0857 11.4483 9.41445C12.1885 8.74321 13.1321 8.34389 14.2792 8.2165V7.1729C14.2792 6.95732 14.3478 6.78338 14.4851 6.65109C14.6223 6.5188 14.7939 6.45265 14.9998 6.45265C15.2056 6.45265 15.3772 6.5188 15.5144 6.65109C15.6518 6.78338 15.7204 6.95732 15.7204 7.1729V8.2165C16.6909 8.32429 17.5316 8.64522 18.2425 9.17927C18.9532 9.71332 19.4115 10.387 19.6173 11.2003C19.637 11.2787 19.6542 11.3571 19.6688 11.4355C19.6836 11.5139 19.691 11.5923 19.691 11.6707C19.691 11.9353 19.6076 12.1509 19.441 12.3174C19.2742 12.484 19.0586 12.5673 18.7939 12.5673C18.3429 12.5673 18.034 12.3174 17.8674 11.8177C17.7105 11.3081 17.4483 10.8966 17.0807 10.583C16.713 10.2694 16.2596 10.0636 15.7204 9.96565V14.1842L15.9263 14.2283C17.24 14.4634 18.2302 14.8946 18.8968 15.5217C19.5635 16.1489 19.8968 16.9769 19.8968 18.0058C19.8968 19.1523 19.4949 20.0563 18.6909 20.7178C17.887 21.3792 16.8968 21.7687 15.7204 21.8862V22.9446C15.7204 23.1602 15.6518 23.3341 15.5144 23.4665C15.3772 23.5987 15.2056 23.6649 14.9998 23.6649ZM14.2792 13.802V9.96565C13.6419 10.0734 13.1395 10.3037 12.7718 10.6565C12.4042 11.0093 12.2203 11.4159 12.2203 11.8765C12.2203 12.3272 12.3772 12.7045 12.6909 13.0083C13.0047 13.3121 13.4998 13.5668 14.1762 13.7726L14.2792 13.802ZM15.7204 16.0362V20.1518C16.4948 20.0636 17.0708 19.8334 17.4483 19.461C17.8257 19.0886 18.0145 18.6379 18.0145 18.1088C18.0145 17.6286 17.8699 17.2268 17.5806 16.9034C17.2914 16.58 16.7792 16.3203 16.0439 16.1244L15.7204 16.0362Z" fill="white"/>
</g>
<defs>
<clipPath id="clip0_88_2039">
<rect width="30" height="30" fill="white" transform="translate(0 0.0146179)"/>
</clipPath>
</defs>
</svg>
