<svg width="27" height="35" viewBox="0 0 27 35" fill="none" xmlns="http://www.w3.org/2000/svg">
<g filter="url(#filter0_d_5_310)">
<path d="M18.7488 16.4766C18.7488 16.3383 18.7215 16.2091 18.6669 16.089C18.6123 15.9689 18.5341 15.8579 18.4322 15.756L9.78536 7.28386C9.58885 7.09462 9.34866 7 9.0648 7C8.88284 7 8.71543 7.04367 8.56259 7.13101C8.40974 7.21835 8.28964 7.33663 8.2023 7.48584C8.11496 7.63505 8.07129 7.80427 8.07129 7.99351C8.07129 8.26281 8.16591 8.49937 8.35515 8.70316L16.3032 16.4766L8.35515 24.25C8.16591 24.4537 8.07129 24.6903 8.07129 24.9597C8.07129 25.1489 8.11496 25.3181 8.2023 25.4673C8.28964 25.6166 8.40974 25.7348 8.56259 25.8221C8.71543 25.9094 8.88284 25.9531 9.0648 25.9531C9.34866 25.9531 9.58885 25.8549 9.78536 25.6584L18.4322 17.1971C18.5341 17.0952 18.6123 16.9842 18.6669 16.8641C18.7215 16.744 18.7488 16.6149 18.7488 16.4766Z" fill="black"/>
<path d="M18.6783 15.5049L18.6808 15.5074C18.8098 15.6363 18.9134 15.7816 18.987 15.9435L18.6669 16.089L18.987 15.9435C19.0634 16.1115 19.1004 16.2906 19.1004 16.4766C19.1004 16.6626 19.0634 16.8416 18.987 17.0096C18.9134 17.1715 18.8098 17.3168 18.6808 17.4458L18.6781 17.4484L18.6781 17.4484L10.0339 25.9071C10.0335 25.9075 10.033 25.908 10.0325 25.9085C9.76869 26.1715 9.43894 26.3047 9.0648 26.3047C8.82379 26.3047 8.59594 26.2461 8.38813 26.1273M18.6783 15.5049L8.56259 25.8221M18.6783 15.5049L10.0314 7.03272L10.0314 7.03271L10.0292 7.0306C9.76433 6.7755 9.43553 6.64841 9.0648 6.64841C8.8238 6.64841 8.59595 6.707 8.38815 6.82574C8.18289 6.94303 8.01789 7.1049 7.89887 7.30822C7.77705 7.51632 7.7197 7.74792 7.7197 7.99351C7.7197 8.35472 7.85006 8.67592 8.0975 8.94241L8.10326 8.94861L8.10931 8.95453L15.8004 16.4766M18.6783 15.5049L16.0518 16.2307M8.38813 26.1273L8.56259 25.8221M8.38813 26.1273C8.38817 26.1274 8.38821 26.1274 8.38824 26.1274L8.56259 25.8221M8.38813 26.1273C8.18288 26.0101 8.01788 25.8483 7.89887 25.645C7.77706 25.4369 7.7197 25.2053 7.7197 24.9597C7.7197 24.5984 7.85005 24.2772 8.09752 24.0107L8.10327 24.0045L8.10931 23.9986L15.8004 16.4766M8.56259 25.8221C8.40974 25.7348 8.28964 25.6166 8.2023 25.4673C8.11496 25.3181 8.07129 25.1489 8.07129 24.9597C8.07129 24.6903 8.16591 24.4537 8.35515 24.25L16.0518 16.7225L15.8004 16.4766M15.8004 16.4766L16.0518 16.2307M16.0518 16.2307L8.35515 8.70316L16.0518 16.2307Z" stroke="black" stroke-width="0.703188"/>
</g>
<defs>
<filter id="filter0_d_5_310" x="0.547117" y="0.179077" width="25.7258" height="34.0013" filterUnits="userSpaceOnUse" color-interpolation-filters="sRGB">
<feFlood flood-opacity="0" result="BackgroundImageFix"/>
<feColorMatrix in="SourceAlpha" type="matrix" values="0 0 0 0 0 0 0 0 0 0 0 0 0 0 0 0 0 0 127 0" result="hardAlpha"/>
<feOffset dy="0.703188"/>
<feGaussianBlur stdDeviation="3.41046"/>
<feComposite in2="hardAlpha" operator="out"/>
<feColorMatrix type="matrix" values="0 0 0 0 0 0 0 0 0 0 0 0 0 0 0 0 0 0 0.37 0"/>
<feBlend mode="normal" in2="BackgroundImageFix" result="effect1_dropShadow_5_310"/>
<feBlend mode="normal" in="SourceGraphic" in2="effect1_dropShadow_5_310" result="shape"/>
</filter>
</defs>
</svg>
