<svg width="30" height="31" viewBox="0 0 30 31" fill="none" xmlns="http://www.w3.org/2000/svg">
<g clip-path="url(#clip0_88_77)">
<path d="M15 30C17.049 30 18.978 29.608 20.7867 28.824C22.5956 28.0402 24.1912 26.9574 25.5735 25.5756C26.9559 24.194 28.0392 22.5992 28.8235 20.7912C29.6078 18.9833 30 17.0554 30 15.0073C30 12.9593 29.6078 11.0313 28.8235 9.22334C28.0392 7.41541 26.9559 5.8206 25.5735 4.43892C24.1912 3.05724 22.5931 1.97444 20.7793 1.19051C18.9657 0.406576 17.0343 0.0146103 14.9853 0.0146103C12.9363 0.0146103 11.0073 0.406576 9.19852 1.19051C7.3897 1.97444 5.79656 3.05724 4.41911 4.43892C3.04166 5.8206 1.96078 7.41541 1.17647 9.22334C0.392156 11.0313 0 12.9593 0 15.0073C0 17.0554 0.392156 18.9833 1.17647 20.7912C1.96078 22.5992 3.04411 24.194 4.42646 25.5756C5.80882 26.9574 7.4044 28.0402 9.21322 28.824C11.022 29.608 12.951 30 15 30Z" fill="#E1B812"/>
<path d="M17.2183 18.4775L17.4194 18.0896C17.4832 17.9649 17.5426 17.8425 17.5985 17.7176C17.7081 17.4688 17.7977 17.2162 17.8542 16.9666C17.9689 16.4628 17.9092 16.0007 17.6029 15.6585C17.2966 15.3094 16.7909 15.0752 16.2682 14.9119C15.1553 14.5917 14.0173 14.2352 12.9163 13.8172C12.6399 13.7123 12.3648 13.6032 12.0908 13.4871C11.821 13.3737 11.5284 13.2411 11.2607 13.0616C10.9961 12.8828 10.7186 12.6444 10.5753 12.2789C10.5043 12.0992 10.4857 11.8959 10.5096 11.7113C10.5337 11.5261 10.594 11.3576 10.6688 11.2074C10.8244 10.8998 11.0153 10.6779 11.1874 10.4398L11.723 9.74122L12.8054 8.35881L14.6483 6.04029L13.2434 6C13.2434 6 10.0433 8.94289 8.61484 10.8001C7.37298 12.4142 8.05129 13.8405 10.2978 14.7999C12.1939 15.61 13.9686 16.237 13.9686 16.237C14.2743 16.3954 14.4918 16.6729 14.5642 16.9967C14.6365 17.3208 14.5565 17.6581 14.3447 17.9213L9.45617 24H14.3335L16.4079 20.032L17.2183 18.4775Z" fill="white"/>
<path d="M21.9104 15.1766C21.2296 14.0377 20.0642 13.2345 18.7141 12.9734L13.931 11.965C13.7316 11.9266 13.5639 11.8 13.4792 11.6242C13.3946 11.4486 13.4036 11.245 13.5031 11.0765L16.6827 6.09837L15.134 6.054L13.176 8.64403L12.13 10.0489L11.6158 10.7549C11.4503 10.9924 11.2678 11.2272 11.1673 11.4469C11.0602 11.674 11.0334 11.8905 11.1106 12.0701C11.1851 12.2543 11.3673 12.4255 11.587 12.563C11.8095 12.7038 12.0542 12.8098 12.3254 12.9161C12.5922 13.0216 12.8629 13.1216 13.1355 13.2175C14.2308 13.6024 15.334 13.9191 16.4753 14.218C17.0605 14.3923 17.6799 14.6257 18.1733 15.1462C18.4139 15.4067 18.5933 15.7489 18.6615 16.1031C18.7317 16.4576 18.7087 16.8067 18.6473 17.1294C18.5826 17.4518 18.4816 17.7548 18.3629 18.0436C18.3029 18.1871 18.2382 18.3293 18.172 18.4663L17.9791 18.8616L17.2063 20.4366L15.4526 24H20.3964L22.2665 18.9148C22.721 17.6781 22.5911 16.3154 21.9104 15.1766Z" fill="white"/>
</g>
<defs>
<clipPath id="clip0_88_77">
<rect width="30" height="30" fill="white" transform="translate(0 0.0146103)"/>
</clipPath>
</defs>
</svg>
