<svg width="30" height="31" viewBox="0 0 30 31" fill="none" xmlns="http://www.w3.org/2000/svg">
<g clip-path="url(#clip0_88_2032)">
<path d="M15 30C17.049 30 18.978 29.6078 20.7867 28.8235C22.5956 28.0392 24.1912 26.9559 25.5735 25.5735C26.9559 24.1912 28.0392 22.5956 28.8235 20.7867C29.6078 18.978 30 17.049 30 15C30 12.951 29.6078 11.022 28.8235 9.21322C28.0392 7.4044 26.9559 5.80882 25.5735 4.42646C24.1912 3.04411 22.5931 1.96078 20.7793 1.17647C18.9657 0.392156 17.0343 0 14.9853 0C12.9363 0 11.0073 0.392156 9.19852 1.17647C7.3897 1.96078 5.79656 3.04411 4.41911 4.42646C3.04166 5.80882 1.96078 7.4044 1.17647 9.21322C0.392156 11.022 0 12.951 0 15C0 17.049 0.392156 18.978 1.17647 20.7867C1.96078 22.5956 3.04411 24.1912 4.42646 25.5735C5.80882 26.9559 7.4044 28.0392 9.21322 28.8235C11.022 29.6078 12.951 30 15 30Z" fill="#E1B812"/>
<path d="M10.8842 22H19.1158C19.8562 22 20.419 21.8086 20.8042 21.4259C21.1893 21.0431 21.3819 20.4791 21.3819 19.7339V12.4563H8.61806V19.7339C8.61806 20.4842 8.81066 21.0495 9.19585 21.4297C9.58104 21.8099 10.1438 22 10.8842 22ZM12.5275 15.2015C12.3674 15.2015 12.2386 15.1508 12.1411 15.0495C12.0435 14.9481 11.9947 14.8137 11.9947 14.6464V14.4107C11.9947 14.2434 12.0435 14.1103 12.1411 14.0114C12.2386 13.9126 12.3674 13.8631 12.5275 13.8631H17.48C17.6401 13.8631 17.7701 13.9126 17.8702 14.0114C17.9702 14.1103 18.0202 14.2434 18.0202 14.4107V14.6464C18.0202 14.8137 17.9702 14.9481 17.8702 15.0495C17.7701 15.1508 17.6401 15.2015 17.48 15.2015H12.5275ZM8.77564 11.4145H21.2243C21.6496 11.4145 21.9685 11.2941 22.181 11.0532C22.3937 10.8124 22.5 10.4791 22.5 10.0532V9.36122C22.5 8.93536 22.3937 8.60203 22.181 8.36122C21.9685 8.12041 21.6496 8 21.2243 8H8.77564C8.37544 8 8.06278 8.12041 7.83767 8.36122C7.61256 8.60203 7.5 8.93536 7.5 9.36122V10.0532C7.5 10.4791 7.6063 10.8124 7.81891 11.0532C8.03152 11.2941 8.35043 11.4145 8.77564 11.4145Z" fill="white"/>
</g>
<defs>
<clipPath id="clip0_88_2032">
<rect width="30" height="30.0146" fill="white"/>
</clipPath>
</defs>
</svg>
