<svg width="32" height="37" viewBox="0 0 32 37" fill="none" xmlns="http://www.w3.org/2000/svg">
<path d="M30.0249 30.272V24.5648C30.0249 24.2731 29.9674 23.9843 29.8558 23.7148C29.7442 23.4453 29.5806 23.2004 29.3743 22.9942C29.1681 22.788 28.9232 22.6243 28.6537 22.5127C28.3843 22.4011 28.0955 22.3437 27.8038 22.3437H27.2215V1.49844C27.221 1.40672 27.1986 1.31645 27.1561 1.23517C27.1135 1.15389 27.0522 1.08396 26.9772 1.03122L25.5396 0.10397C25.4578 0.0557242 25.3649 0.0293329 25.27 0.0273346C25.1751 0.0253363 25.0812 0.0477981 24.9975 0.0925601C24.9137 0.137322 24.8429 0.202878 24.7918 0.282925C24.7407 0.362972 24.7111 0.454816 24.7057 0.549627V7.24885L24.2817 6.11314C24.0049 5.36938 23.5077 4.72785 22.8564 4.27441C22.2051 3.82096 21.4309 3.57721 20.6373 3.57578H10.9263C10.128 3.57693 9.34919 3.82287 8.69497 4.28044C8.04075 4.73801 7.54258 5.38519 7.26764 6.13471L6.86512 7.24885V0.549627C6.86443 0.450295 6.83702 0.352981 6.78576 0.267891C6.73451 0.182802 6.6613 0.113075 6.57381 0.0660251C6.48633 0.0189749 6.38779 -0.00366435 6.28855 0.000482625C6.1893 0.0046296 6.093 0.0354098 6.00974 0.0895942L4.57214 1.01685C4.4971 1.06959 4.43575 1.13952 4.39324 1.22079C4.35073 1.30207 4.32827 1.39234 4.32775 1.48407V22.3293H3.74552C3.45385 22.3293 3.16502 22.3867 2.89555 22.4984C2.62607 22.61 2.38122 22.7736 2.17497 22.9798C1.96873 23.1861 1.80512 23.4309 1.6935 23.7004C1.58188 23.9699 1.52443 24.2587 1.52443 24.5504V30.2577H0.597177C0.450386 30.2577 0.309608 30.316 0.205811 30.4198C0.102014 30.5236 0.0437012 30.6643 0.0437012 30.8111V33.902C0.0437012 33.9747 0.0580173 34.0466 0.0858321 34.1138C0.113647 34.1809 0.154416 34.2419 0.205811 34.2933C0.257206 34.3447 0.31822 34.3855 0.385371 34.4133C0.452522 34.4411 0.524494 34.4554 0.597177 34.4554H2.99078V35.893C2.99268 36.1873 3.1109 36.4688 3.31964 36.6762C3.52837 36.8836 3.81068 37 4.10492 37H7.05201C7.34559 37 7.62714 36.8834 7.83474 36.6758C8.04233 36.4682 8.15896 36.1866 8.15896 35.893V34.4554H23.4119V35.893C23.4119 36.1866 23.5285 36.4682 23.7361 36.6758C23.9437 36.8834 24.2253 37 24.5189 37H27.4659C27.7602 37 28.0425 36.8836 28.2512 36.6762C28.46 36.4688 28.5782 36.1873 28.5801 35.893V34.4554H30.9737C31.0464 34.4554 31.1183 34.4411 31.1855 34.4133C31.2526 34.3855 31.3137 34.3447 31.365 34.2933C31.4164 34.2419 31.4572 34.1809 31.485 34.1138C31.5128 34.0466 31.5272 33.9747 31.5272 33.902V30.8255C31.5272 30.6787 31.4688 30.5379 31.365 30.4341C31.2613 30.3303 31.1205 30.272 30.9737 30.272H30.0249ZM7.60548 10.3469H23.9654V15.8241H7.60548V10.3469ZM7.22452 28.7194H5.32688C5.0498 28.7175 4.78471 28.6061 4.58945 28.4095C4.3942 28.2129 4.28462 27.9471 4.28462 27.67C4.28462 27.3916 4.39519 27.1247 4.592 26.9279C4.78881 26.7311 5.05574 26.6205 5.33407 26.6205H7.23171C7.51004 26.6205 7.77697 26.7311 7.97378 26.9279C8.17059 27.1247 8.28115 27.3916 8.28115 27.67C8.28116 27.8084 8.25378 27.9454 8.20059 28.0732C8.1474 28.201 8.06945 28.317 7.97124 28.4146C7.87303 28.5121 7.75649 28.5893 7.62833 28.6416C7.50018 28.6939 7.36294 28.7204 7.22452 28.7194ZM19.5591 29.0285H12.0117C11.8652 29.0295 11.7198 29.0013 11.5842 28.9456C11.4486 28.89 11.3254 28.808 11.2218 28.7043C11.1181 28.6007 11.0361 28.4775 10.9805 28.3419C10.9248 28.2062 10.8966 28.0609 10.8976 27.9144V20.8773C10.8976 20.7313 10.9265 20.5868 10.9825 20.452C11.0386 20.3173 11.1208 20.1949 11.2243 20.092C11.3279 19.9891 11.4508 19.9077 11.5859 19.8525C11.721 19.7973 11.8658 19.7694 12.0117 19.7704H19.5591C19.7051 19.7694 19.8498 19.7973 19.985 19.8525C20.1201 19.9077 20.243 19.9891 20.3465 20.092C20.4501 20.1949 20.5322 20.3173 20.5883 20.452C20.6444 20.5868 20.6733 20.7313 20.6733 20.8773V27.9144C20.6742 28.0609 20.6461 28.2062 20.5904 28.3419C20.5348 28.4775 20.4527 28.6007 20.3491 28.7043C20.2454 28.808 20.1222 28.89 19.9866 28.9456C19.851 29.0013 19.7057 29.0295 19.5591 29.0285ZM26.244 28.7194H24.3463C24.068 28.7194 23.8011 28.6089 23.6043 28.412C23.4075 28.2152 23.2969 27.9483 23.2969 27.67C23.2969 27.3916 23.4075 27.1247 23.6043 26.9279C23.8011 26.7311 24.068 26.6205 24.3463 26.6205H26.244C26.5161 26.6223 26.777 26.7297 26.9715 26.9202C27.1659 27.1106 27.2788 27.3691 27.2862 27.6412C27.2901 27.7808 27.266 27.9198 27.2154 28.05C27.1648 28.1802 27.0888 28.299 26.9917 28.3994C26.8947 28.4998 26.7785 28.5798 26.6501 28.6348C26.5217 28.6897 26.3836 28.7185 26.244 28.7194ZM19.3794 23.8316H12.1914C12.1191 23.8325 12.0473 23.8191 11.9802 23.7921C11.9131 23.765 11.852 23.725 11.8005 23.6741C11.749 23.6233 11.7081 23.5628 11.6802 23.496C11.6523 23.4293 11.6379 23.3576 11.638 23.2853C11.6379 23.2129 11.6523 23.1413 11.6802 23.0746C11.7081 23.0078 11.749 22.9473 11.8005 22.8964C11.852 22.8456 11.9131 22.8055 11.9802 22.7785C12.0473 22.7515 12.1191 22.738 12.1914 22.739H19.3794C19.5243 22.739 19.6633 22.7966 19.7657 22.899C19.8682 23.0014 19.9257 23.1404 19.9257 23.2853C19.9257 23.4302 19.8682 23.5691 19.7657 23.6716C19.6633 23.774 19.5243 23.8316 19.3794 23.8316ZM19.3794 21.6105H12.1914C12.1191 21.6114 12.0473 21.598 11.9802 21.571C11.9131 21.544 11.852 21.5039 11.8005 21.453C11.749 21.4022 11.7081 21.3417 11.6802 21.2749C11.6523 21.2082 11.6379 21.1365 11.638 21.0642C11.6379 20.9918 11.6523 20.9202 11.6802 20.8535C11.7081 20.7867 11.749 20.7262 11.8005 20.6753C11.852 20.6245 11.9131 20.5844 11.9802 20.5574C12.0473 20.5304 12.1191 20.517 12.1914 20.5179H19.3794C19.5243 20.5179 19.6633 20.5755 19.7657 20.6779C19.8682 20.7804 19.9257 20.9193 19.9257 21.0642C19.9257 21.2091 19.8682 21.348 19.7657 21.4505C19.6633 21.5529 19.5243 21.6105 19.3794 21.6105ZM19.3794 28.2738H12.1914C12.1191 28.2747 12.0473 28.2613 11.9802 28.2343C11.9131 28.2072 11.852 28.1671 11.8005 28.1163C11.749 28.0655 11.7081 28.005 11.6802 27.9382C11.6523 27.8715 11.6379 27.7998 11.638 27.7275C11.633 27.6522 11.6437 27.5766 11.6693 27.5057C11.695 27.4347 11.7351 27.3698 11.7871 27.3151C11.8391 27.2604 11.9019 27.217 11.9715 27.1878C12.0411 27.1586 12.116 27.1441 12.1914 27.1452H19.3794C19.5243 27.1452 19.6633 27.2028 19.7657 27.3052C19.8682 27.4077 19.9257 27.5466 19.9257 27.6915C19.9306 27.7662 19.9202 27.8412 19.8949 27.9116C19.8697 27.9821 19.8302 28.0467 19.779 28.1013C19.7278 28.1559 19.6659 28.1994 19.5971 28.229C19.5284 28.2587 19.4543 28.2739 19.3794 28.2738ZM19.3794 26.0527H12.1914C12.1191 26.0536 12.0473 26.0402 11.9802 26.0132C11.9131 25.9861 11.852 25.9461 11.8005 25.8952C11.749 25.8444 11.7081 25.7839 11.6802 25.7171C11.6523 25.6504 11.6379 25.5787 11.638 25.5064C11.6379 25.434 11.6523 25.3624 11.6802 25.2956C11.7081 25.2289 11.749 25.1684 11.8005 25.1175C11.852 25.0667 11.9131 25.0266 11.9802 24.9996C12.0473 24.9726 12.1191 24.9591 12.1914 24.9601H19.3794C19.5243 24.9601 19.6633 25.0176 19.7657 25.1201C19.8682 25.2225 19.9257 25.3615 19.9257 25.5064C19.9257 25.6513 19.8682 25.7902 19.7657 25.8927C19.6633 25.9951 19.5243 26.0527 19.3794 26.0527Z" fill="#E7C641"/>
</svg>
