<svg width="15" height="14" viewBox="0 0 15 14" fill="none" xmlns="http://www.w3.org/2000/svg">
<path d="M0.629517 9.62728C0.629517 10.3043 0.7581 10.9241 1.01527 11.4868C1.27244 12.0495 1.62412 12.5001 2.07031 12.8386C2.51651 13.1771 3.02095 13.3463 3.58364 13.3463H4.79035C4.1793 12.9023 3.73091 12.3528 3.44517 11.6978C3.15943 11.0428 3.02315 10.3306 3.03634 9.56138C3.04513 8.98986 3.11437 8.47331 3.24405 8.01173C3.37373 7.55014 3.53529 7.14241 3.72871 6.78855C3.92213 6.43467 4.11996 6.13245 4.32217 5.88188H3.33307C2.82313 5.88188 2.36375 6.04892 1.95492 6.38302C1.54609 6.71711 1.22298 7.16661 0.985594 7.73151C0.748209 8.2964 0.629517 8.92833 0.629517 9.62728ZM3.95291 9.58116C3.94412 10.2054 4.05841 10.7834 4.2958 11.3153C4.53318 11.8473 4.87717 12.3122 5.32777 12.71C5.77836 13.1078 6.32346 13.4188 6.96308 13.6431C7.60271 13.8672 8.31817 13.9837 9.10945 13.9926L10.0458 13.9991C10.4898 14.0035 10.8722 13.9914 11.1931 13.9629C11.514 13.9343 11.7668 13.8936 11.9515 13.8408C12.2196 13.7749 12.4625 13.6552 12.6801 13.4815C12.8977 13.3079 13.0065 13.0584 13.0065 12.7331C13.0065 12.6012 12.9911 12.4869 12.9603 12.3902C12.9296 12.2935 12.8922 12.2078 12.8483 12.1331C12.7911 12.0407 12.8043 11.977 12.8878 11.9418C13.0988 11.8583 13.2812 11.7198 13.4351 11.5264C13.589 11.3329 13.6659 11.1 13.6659 10.8274C13.6659 10.5197 13.5868 10.2625 13.4285 10.0559C13.3494 9.9504 13.367 9.86248 13.4813 9.79217C13.6351 9.70421 13.7604 9.57011 13.8571 9.38987C13.9539 9.20967 14.0022 9.00746 14.0022 8.78324C14.0022 8.62938 13.978 8.47552 13.9297 8.32166C13.8813 8.16779 13.811 8.04911 13.7187 7.96561C13.6308 7.88206 13.6396 7.79412 13.745 7.7018C13.855 7.61388 13.9407 7.49409 14.0022 7.34244C14.0638 7.19078 14.0945 7.01824 14.0945 6.82481C14.0945 6.60502 14.0429 6.405 13.9396 6.22477C13.8363 6.04453 13.6945 5.90056 13.5142 5.79286C13.334 5.68515 13.1318 5.6313 12.9076 5.6313H10.5008C10.193 5.6313 9.94686 5.55767 9.76226 5.41041C9.5776 5.26314 9.48528 5.06422 9.48528 4.81365C9.48528 4.58066 9.54242 4.3103 9.65672 4.00257C9.77101 3.69485 9.90401 3.36735 10.0557 3.02007C10.2074 2.67278 10.3403 2.32659 10.4546 1.98151C10.5689 1.63642 10.6261 1.31221 10.6261 1.00889C10.6261 0.692373 10.536 0.445097 10.3557 0.267058C10.1755 0.0890195 9.95128 0 9.68312 0C9.43693 0 9.2424 0.0780294 9.09952 0.234088C8.95669 0.390147 8.81932 0.595662 8.68743 0.850633C8.18186 1.83974 7.61807 2.74092 6.99605 3.55418C6.37402 4.36745 5.80364 5.11697 5.2849 5.80275C4.99037 6.1896 4.74639 6.56985 4.55297 6.94351C4.35954 7.31718 4.21337 7.71503 4.11446 8.13705C4.01555 8.55907 3.9617 9.04044 3.95291 9.58116Z" fill="#555555"/>
</svg>
