<svg width="30" height="31" viewBox="0 0 30 31" fill="none" xmlns="http://www.w3.org/2000/svg">
<g clip-path="url(#clip0_88_2053)">
<path d="M15 30C17.049 30 18.978 29.608 20.7867 28.824C22.5956 28.0402 24.1912 26.9574 25.5735 25.5756C26.9559 24.194 28.0392 22.5992 28.8235 20.7912C29.6078 18.9833 30 17.0554 30 15.0073C30 12.9593 29.6078 11.0313 28.8235 9.22335C28.0392 7.41542 26.9559 5.82061 25.5735 4.43892C24.1912 3.05725 22.5931 1.97445 20.7793 1.19051C18.9657 0.406583 17.0343 0.0146179 14.9853 0.0146179C12.9363 0.0146179 11.0073 0.406583 9.19852 1.19051C7.3897 1.97445 5.79656 3.05725 4.41911 4.43892C3.04166 5.82061 1.96078 7.41542 1.17647 9.22335C0.392156 11.0313 0 12.9593 0 15.0073C0 17.0554 0.392156 18.9833 1.17647 20.7912C1.96078 22.5992 3.04411 24.194 4.42646 25.5756C5.80882 26.9574 7.4044 28.0402 9.21322 28.824C11.022 29.608 12.951 30 15 30Z" fill="#E1B812"/>
<path d="M8 17.6272C8 18.3042 8.12858 18.9241 8.38575 19.4868C8.64292 20.0494 8.9946 20.5001 9.4408 20.8386C9.88699 21.177 10.3914 21.3463 10.9541 21.3463H12.1608C11.5498 20.9023 11.1014 20.3528 10.8157 19.6978C10.5299 19.0428 10.3936 18.3306 10.4068 17.5613C10.4156 16.9898 10.4848 16.4733 10.6145 16.0117C10.7442 15.5501 10.9058 15.1424 11.0992 14.7885C11.2926 14.4346 11.4904 14.1324 11.6927 13.8818H10.7036C10.1936 13.8818 9.73423 14.0489 9.3254 14.383C8.91657 14.7171 8.59346 15.1666 8.35608 15.7315C8.11869 16.2964 8 16.9283 8 17.6272ZM11.3234 17.5811C11.3146 18.2054 11.4289 18.7834 11.6663 19.3153C11.9037 19.8473 12.2477 20.3121 12.6982 20.7099C13.1488 21.1078 13.6939 21.4188 14.3336 21.643C14.9732 21.8672 15.6887 21.9837 16.4799 21.9925L17.4163 21.9991C17.8603 22.0035 18.2427 21.9914 18.5636 21.9628C18.8845 21.9342 19.1373 21.8936 19.322 21.8408C19.5901 21.7749 19.833 21.6551 20.0506 21.4815C20.2682 21.3078 20.377 21.0584 20.377 20.733C20.377 20.6012 20.3616 20.4869 20.3308 20.3901C20.3001 20.2935 20.2627 20.2077 20.2187 20.133C20.1616 20.0407 20.1748 19.9769 20.2583 19.9417C20.4693 19.8582 20.6517 19.7198 20.8056 19.5263C20.9594 19.3329 21.0364 19.0999 21.0364 18.8274C21.0364 18.5197 20.9573 18.2625 20.799 18.0559C20.7199 17.9504 20.7375 17.8625 20.8518 17.7921C21.0056 17.7042 21.1309 17.5701 21.2276 17.3898C21.3243 17.2096 21.3727 17.0074 21.3727 16.7832C21.3727 16.6293 21.3485 16.4755 21.3002 16.3216C21.2518 16.1678 21.1815 16.0491 21.0892 15.9656C21.0013 15.882 21.01 15.7941 21.1155 15.7018C21.2254 15.6139 21.3112 15.4941 21.3727 15.3424C21.4342 15.1908 21.465 15.0182 21.465 14.8248C21.465 14.605 21.4134 14.405 21.31 14.2247C21.2067 14.0445 21.065 13.9005 20.8847 13.7928C20.7045 13.6851 20.5023 13.6313 20.2781 13.6313H17.8712C17.5635 13.6313 17.3173 13.5576 17.1327 13.4104C16.9481 13.2631 16.8558 13.0642 16.8558 12.8136C16.8558 12.5806 16.9129 12.3103 17.0272 12.0025C17.1415 11.6948 17.2745 11.3673 17.4262 11.02C17.5779 10.6728 17.7108 10.3266 17.8251 9.98148C17.9394 9.63639 17.9966 9.31218 17.9966 9.00886C17.9966 8.69234 17.9064 8.44507 17.7262 8.26703C17.546 8.08899 17.3218 7.99997 17.0536 7.99997C16.8074 7.99997 16.6129 8.078 16.47 8.23406C16.3272 8.39012 16.1898 8.59563 16.0579 8.8506C15.5523 9.8397 14.9886 10.7409 14.3665 11.5542C13.7445 12.3674 13.1741 13.1169 12.6554 13.8027C12.3609 14.1896 12.1169 14.5698 11.9235 14.9435C11.73 15.3172 11.5839 15.715 11.4849 16.137C11.386 16.559 11.3322 17.0404 11.3234 17.5811Z" fill="white"/>
</g>
<defs>
<clipPath id="clip0_88_2053">
<rect width="30" height="30" fill="white" transform="translate(0 0.0146179)"/>
</clipPath>
</defs>
</svg>
